<svg width="302" height="158" viewBox="0 0 302 158" fill="none" xmlns="http://www.w3.org/2000/svg">
<path d="M298.958 136.114H3.04541V136.595H298.958V136.114Z" fill="#1C344F"/>
<path d="M203.785 136.441H203.306V44.6054H179.714V136.354H179.236V44.1246H203.785V136.441Z" fill="#1C344F"/>
<path d="M181.787 42.7914H181.308V44.365H181.787V42.7914Z" fill="#1C344F"/>
<path d="M201.355 42.7914H200.876V44.365H201.355V42.7914Z" fill="#1C344F"/>
<path d="M203.179 38.0066H179.889V38.4873H203.179V38.0066Z" fill="#1C344F"/>
<path d="M203.179 42.5319H179.889V43.0126H203.179V42.5319Z" fill="#1C344F"/>
<path d="M199.212 38.2822H198.733V37.1444H184.338V38.2181H183.86V36.6637H199.212V38.2822Z" fill="#1C344F"/>
<path d="M194.221 36.9041H193.743V35.3754H189.329V36.9041H188.851V34.8947H194.221V36.9041Z" fill="#1C344F"/>
<path d="M180.719 38.2661H180.24V42.7914H180.719V38.2661Z" fill="#1C344F"/>
<path d="M182.418 38.2661H181.94V42.7914H182.418V38.2661Z" fill="#1C344F"/>
<path d="M184.118 38.2661H183.64V42.7914H184.118V38.2661Z" fill="#1C344F"/>
<path d="M185.821 38.2661H185.343V42.7914H185.821V38.2661Z" fill="#1C344F"/>
<path d="M187.521 38.2661H187.042V42.7914H187.521V38.2661Z" fill="#1C344F"/>
<path d="M189.223 38.2661H188.745V42.7914H189.223V38.2661Z" fill="#1C344F"/>
<path d="M190.923 38.2661H190.445V42.7914H190.923V38.2661Z" fill="#1C344F"/>
<path d="M192.626 38.2661H192.148V42.7914H192.626V38.2661Z" fill="#1C344F"/>
<path d="M194.326 38.2661H193.848V42.7914H194.326V38.2661Z" fill="#1C344F"/>
<path d="M196.026 38.2661H195.547V42.7914H196.026V38.2661Z" fill="#1C344F"/>
<path d="M197.729 38.2661H197.25V42.7914H197.729V38.2661Z" fill="#1C344F"/>
<path d="M199.429 38.2661H198.95V42.7914H199.429V38.2661Z" fill="#1C344F"/>
<path d="M201.131 38.2661H200.653V42.7914H201.131V38.2661Z" fill="#1C344F"/>
<path d="M202.831 38.2661H202.353V42.7914H202.831V38.2661Z" fill="#1C344F"/>
<path d="M191.775 21.5592H191.296V35.135H191.775V21.5592Z" fill="#1C344F"/>
<path d="M184.564 53.063H181.873V46.9353H184.564V53.063ZM182.351 52.5823H184.086V47.4321H182.351V52.5823Z" fill="#1C344F"/>
<path d="M184.564 63.1647H181.873V57.0466H184.564V63.1647ZM182.351 62.684H184.086V57.5177H182.351V62.684Z" fill="#1C344F"/>
<path d="M184.564 73.2665H181.873V67.1356H184.564V73.2665ZM182.351 72.7858H184.086V67.6228H182.351V72.7858Z" fill="#1C344F"/>
<path d="M184.564 83.365H181.873V77.2373H184.564V83.365ZM182.351 82.8843H184.086V77.718H182.351V82.8843Z" fill="#1C344F"/>
<path d="M184.564 93.4699H181.873V87.3358H184.564V93.4699ZM182.351 92.9892H184.086V87.8133H182.351V92.9892Z" fill="#1C344F"/>
<path d="M184.564 103.572H181.873V97.428H184.564V103.572ZM182.351 103.091H184.086V97.9215H182.351V103.091Z" fill="#1C344F"/>
<path d="M184.564 113.67H181.873V107.539H184.564V113.67ZM182.351 113.19H184.086V108.02H182.351V113.19Z" fill="#1C344F"/>
<path d="M184.564 123.772H181.873V117.641H184.564V123.772ZM182.351 123.291H184.086V118.122H182.351V123.291Z" fill="#1C344F"/>
<path d="M184.564 133.87H181.873V127.743H184.564V133.87ZM182.351 133.39H184.086V128.224H182.351V133.39Z" fill="#1C344F"/>
<path d="M188.71 53.063H186.019V46.9353H188.71V53.063ZM186.497 52.5823H188.232V47.4321H186.497V52.5823Z" fill="#1C344F"/>
<path d="M188.71 63.1647H186.019V57.0466H188.71V63.1647ZM186.497 62.684H188.232V57.5177H186.497V62.684Z" fill="#1C344F"/>
<path d="M188.71 73.2665H186.019V67.1356H188.71V73.2665ZM186.497 72.7858H188.232V67.6228H186.497V72.7858Z" fill="#1C344F"/>
<path d="M188.71 83.365H186.019V77.2373H188.71V83.365ZM186.497 82.8843H188.232V77.718H186.497V82.8843Z" fill="#1C344F"/>
<path d="M188.71 93.4699H186.019V87.3358H188.71V93.4699ZM186.497 92.9892H188.232V87.8133H186.497V92.9892Z" fill="#1C344F"/>
<path d="M188.71 103.572H186.019V97.428H188.71V103.572ZM186.497 103.091H188.232V97.9215H186.497V103.091Z" fill="#1C344F"/>
<path d="M188.71 113.67H186.019V107.539H188.71V113.67ZM186.497 113.19H188.232V108.02H186.497V113.19Z" fill="#1C344F"/>
<path d="M188.71 123.772H186.019V117.641H188.71V123.772ZM186.497 123.291H188.232V118.122H186.497V123.291Z" fill="#1C344F"/>
<path d="M188.71 133.87H186.019V127.743H188.71V133.87ZM186.497 133.39H188.232V128.224H186.497V133.39Z" fill="#1C344F"/>
<path d="M192.856 53.063H190.167V46.9353H192.856V53.063ZM190.646 52.5823H192.377V47.4321H190.646V52.5823Z" fill="#1C344F"/>
<path d="M192.856 63.1647H190.167V57.0466H192.856V63.1647ZM190.646 62.684H192.377V57.5177H190.646V62.684Z" fill="#1C344F"/>
<path d="M192.856 73.2665H190.167V67.1356H192.856V73.2665ZM190.646 72.7858H192.377V67.6228H190.646V72.7858Z" fill="#1C344F"/>
<path d="M192.856 83.365H190.167V77.2373H192.856V83.365ZM190.646 82.8843H192.377V77.718H190.646V82.8843Z" fill="#1C344F"/>
<path d="M192.856 93.4699H190.167V87.3358H192.856V93.4699ZM190.646 92.9892H192.377V87.8133H190.646V92.9892Z" fill="#1C344F"/>
<path d="M192.856 103.572H190.167V97.428H192.856V103.572ZM190.646 103.091H192.377V97.9215H190.646V103.091Z" fill="#1C344F"/>
<path d="M192.856 113.67H190.167V107.539H192.856V113.67ZM190.646 113.19H192.377V108.02H190.646V113.19Z" fill="#1C344F"/>
<path d="M192.856 123.772H190.167V117.641H192.856V123.772ZM190.646 123.291H192.377V118.122H190.646V123.291Z" fill="#1C344F"/>
<path d="M192.856 133.87H190.167V127.743H192.856V133.87ZM190.646 133.39H192.377V128.224H190.646V133.39Z" fill="#1C344F"/>
<path d="M197.002 53.063H194.31V46.9353H197.002V53.063ZM194.788 52.5823H196.523V47.4321H194.788V52.5823Z" fill="#1C344F"/>
<path d="M197.002 63.1647H194.31V57.0466H197.002V63.1647ZM194.788 62.684H196.523V57.5177H194.788V62.684Z" fill="#1C344F"/>
<path d="M197.002 73.2665H194.31V67.1356H197.002V73.2665ZM194.788 72.7858H196.523V67.6228H194.788V72.7858Z" fill="#1C344F"/>
<path d="M197.002 83.365H194.31V77.2373H197.002V83.365ZM194.788 82.8843H196.523V77.718H194.788V82.8843Z" fill="#1C344F"/>
<path d="M197.002 93.4699H194.31V87.3358H197.002V93.4699ZM194.788 92.9892H196.523V87.8133H194.788V92.9892Z" fill="#1C344F"/>
<path d="M197.002 103.572H194.31V97.428H197.002V103.572ZM194.788 103.091H196.523V97.9215H194.788V103.091Z" fill="#1C344F"/>
<path d="M197.002 113.67H194.31V107.539H197.002V113.67ZM194.788 113.19H196.523V108.02H194.788V113.19Z" fill="#1C344F"/>
<path d="M197.002 123.772H194.31V117.641H197.002V123.772ZM194.788 123.291H196.523V118.122H194.788V123.291Z" fill="#1C344F"/>
<path d="M197.002 133.87H194.31V127.743H197.002V133.87ZM194.788 133.39H196.523V128.224H194.788V133.39Z" fill="#1C344F"/>
<path d="M201.147 73.2665H198.456V67.1356H201.147V73.2665ZM198.934 72.7858H200.669V67.6228H198.934V72.7858Z" fill="#1C344F"/>
<path d="M201.147 63.1647H198.456V57.0466H201.147V63.1647ZM198.934 62.684H200.669V57.5177H198.934V62.684Z" fill="#1C344F"/>
<path d="M201.147 53.063H198.456V46.9353H201.147V53.063ZM198.934 52.5823H200.669V47.4321H198.934V52.5823Z" fill="#1C344F"/>
<path d="M201.147 83.3682H198.456V77.2373H201.147V83.3682ZM198.934 82.8875H200.669V77.718H198.934V82.8875Z" fill="#1C344F"/>
<path d="M201.147 123.772H198.456V117.641H201.147V123.772ZM198.934 123.291H200.669V118.122H198.934V123.291Z" fill="#1C344F"/>
<path d="M201.147 93.4699H198.456V87.3358H201.147V93.4699ZM198.934 92.9892H200.669V87.8133H198.934V92.9892Z" fill="#1C344F"/>
<path d="M201.147 133.87H198.456V127.743H201.147V133.87ZM198.934 133.39H200.669V128.224H198.934V133.39Z" fill="#1C344F"/>
<path d="M201.147 113.67H198.456V107.539H201.147V113.67ZM198.934 113.19H200.669V108.02H198.934V113.19Z" fill="#1C344F"/>
<path d="M201.147 103.572H198.456V97.428H201.147V103.572ZM198.934 103.091H200.669V97.9215H198.934V103.091Z" fill="#1C344F"/>
<path d="M209.381 136.354H208.903V77.0419H229.737V136.306H229.259V77.5226H209.381V136.354Z" fill="#1C344F"/>
<path d="M227.256 77.2822H226.777V72.273H211.862V77.2822H211.384V71.7922H227.256V77.2822Z" fill="#1C344F"/>
<path d="M212.714 72.2313L212.437 71.8371L219.401 66.892L226.204 71.8403L225.923 72.2281L219.398 67.4817L212.714 72.2313Z" fill="#1C344F"/>
<path d="M215.527 72.1896L215.16 71.8787L219.216 67.033L219.628 67.2573L218.164 72.1031L217.708 71.9653L218.83 68.238L215.527 72.1896Z" fill="#1C344F"/>
<path d="M223.273 72.1896L219.966 68.238L221.091 71.9653L220.632 72.1031L219.168 67.2573L219.583 67.033L223.636 71.8787L223.273 72.1896Z" fill="#1C344F"/>
<path d="M227.02 72.4172H211.623V72.898H227.02V72.4172Z" fill="#1C344F"/>
<path d="M213.492 74.3304H213.014V77.2821H213.492V74.3304Z" fill="#1C344F"/>
<path d="M215.01 74.3304H214.532V77.2821H215.01V74.3304Z" fill="#1C344F"/>
<path d="M216.525 74.3304H216.046V77.2821H216.525V74.3304Z" fill="#1C344F"/>
<path d="M218.043 74.3304H217.564V77.2821H218.043V74.3304Z" fill="#1C344F"/>
<path d="M219.557 74.3304H219.079V77.2821H219.557V74.3304Z" fill="#1C344F"/>
<path d="M221.076 74.3304H220.597V77.2821H221.076V74.3304Z" fill="#1C344F"/>
<path d="M222.594 74.3304H222.115V77.2821H222.594V74.3304Z" fill="#1C344F"/>
<path d="M224.108 74.3304H223.63V77.2821H224.108V74.3304Z" fill="#1C344F"/>
<path d="M225.626 74.3304H225.148V77.2821H225.626V74.3304Z" fill="#1C344F"/>
<path d="M212.379 80.5127H211.901V133.46H212.379V80.5127Z" fill="#1C344F"/>
<path d="M215.252 80.5127H214.774V133.46H215.252V80.5127Z" fill="#1C344F"/>
<path d="M218.122 80.5127H217.644V133.46H218.122V80.5127Z" fill="#1C344F"/>
<path d="M220.996 80.5127H220.517V133.46H220.996V80.5127Z" fill="#1C344F"/>
<path d="M223.866 80.5127H223.387V133.46H223.866V80.5127Z" fill="#1C344F"/>
<path d="M226.736 80.5127H226.258V133.46H226.736V80.5127Z" fill="#1C344F"/>
<path d="M179.475 122.923H135.626V123.403H179.475V122.923Z" fill="#1C344F"/>
<path d="M130.217 122.923H98.6077V123.403H130.217V122.923Z" fill="#1C344F"/>
<path d="M179.475 126.374H134.95V126.855H179.475V126.374Z" fill="#1C344F"/>
<path d="M129.222 126.374H98.5503V126.855H129.222V126.374Z" fill="#1C344F"/>
<path d="M126.652 136.341L126.193 136.207C126.26 135.97 132.191 115.324 135.651 102.787L128.045 123.218L127.596 123.051L137.048 97.6683L137.504 97.8126C134.612 108.645 126.732 136.066 126.652 136.341Z" fill="#1C344F"/>
<path d="M137.09 96.6309L121.537 123.05L121.949 123.294L137.502 96.8757L137.09 96.6309Z" fill="#1C344F"/>
<path d="M137.086 87.6432L108.561 123.005L108.933 123.308L137.458 87.9459L137.086 87.6432Z" fill="#1C344F"/>
<path d="M137.069 84.183L102.891 122.979L103.249 123.298L137.427 84.5016L137.069 84.183Z" fill="#1C344F"/>
<path d="M137.125 80.3594L98.374 121.743L98.7224 122.072L137.473 80.6889L137.125 80.3594Z" fill="#1C344F"/>
<path d="M137.104 76.4963L98.3562 114.656L98.691 115L137.439 76.8396L137.104 76.4963Z" fill="#1C344F"/>
<path d="M142.663 126.568L142.192 126.649L143.872 136.456L144.343 136.374L142.663 126.568Z" fill="#1C344F"/>
<path d="M133.314 136.47L132.845 136.374L138.789 106.729L139.261 106.735L142.061 123.093L141.592 123.176L139.006 108.084L133.314 136.47Z" fill="#1C344F"/>
<path d="M137.077 91.9029L114.984 123.018L115.374 123.297L137.466 92.1822L137.077 91.9029Z" fill="#1C344F"/>
<path d="M148.663 126.544L148.2 126.667L150.791 136.474L151.254 136.351L148.663 126.544Z" fill="#1C344F"/>
<path d="M150.062 123.218L142.262 102.386C143.582 107.363 145.419 114.282 147.741 123.067L147.278 123.189C144.089 111.135 141.825 102.597 140.546 97.8094L140.999 97.662L150.522 123.048L150.062 123.218Z" fill="#1C344F"/>
<path d="M140.982 96.6223L140.57 96.8676L156.164 123.292L156.575 123.047L140.982 96.6223Z" fill="#1C344F"/>
<path d="M140.963 87.6458L140.592 87.949L169.186 123.308L169.557 123.005L140.963 87.6458Z" fill="#1C344F"/>
<path d="M140.952 84.1435L140.594 84.4625L174.859 123.289L175.217 122.97L140.952 84.1435Z" fill="#1C344F"/>
<path d="M141.002 80.3583L140.654 80.6876L179.3 121.989L179.649 121.659L141.002 80.3583Z" fill="#1C344F"/>
<path d="M140.941 76.4842L140.606 76.8279L179.339 114.907L179.674 114.563L140.941 76.4842Z" fill="#1C344F"/>
<path d="M140.969 91.8997L140.58 92.1794L162.738 123.295L163.127 123.015L140.969 91.8997Z" fill="#1C344F"/>
<path d="M141.015 97.755H140.537V76.9073L137.511 76.9041V97.7518H137.032V76.4233L141.015 76.4265V97.755Z" fill="#1C344F"/>
<path d="M140.776 79.6923H137.287V80.173H140.776V79.6923Z" fill="#1C344F"/>
<path d="M140.776 84.4387H137.271V84.9194H140.776V84.4387Z" fill="#1C344F"/>
<path d="M280.369 107.95H267.843V107.469H280.369V107.95ZM280.315 99.2708H267.961V98.79H280.315V99.2708Z" fill="#1C344F"/>
<path d="M268.927 98.9728H268.448V136.409H268.927V98.9728Z" fill="#1C344F"/>
<path d="M279.76 98.9728H279.281V136.409H279.76V98.9728Z" fill="#1C344F"/>
<path d="M279.521 108.405H268.688V108.885H279.521V108.405Z" fill="#1C344F"/>
<path d="M272.297 111.529H270.406V109.51H272.297V111.529ZM270.885 111.049H271.819V109.991H270.885V111.049Z" fill="#1C344F"/>
<path d="M275.053 111.529H273.158V109.51H275.053V111.529ZM273.637 111.049H274.574V109.991H273.637V111.049Z" fill="#1C344F"/>
<path d="M277.805 111.529H275.911V109.51H277.805V111.529ZM276.389 111.049H277.327V109.991H276.389V111.049Z" fill="#1C344F"/>
<path d="M272.297 114.391H270.406V112.379H272.297V114.391ZM270.885 113.911H271.819V112.859H270.885V113.911Z" fill="#1C344F"/>
<path d="M275.053 114.391H273.158V112.379H275.053V114.391ZM273.637 113.911H274.574V112.859H273.637V113.911Z" fill="#1C344F"/>
<path d="M277.805 114.391H275.911V112.379H277.805V114.391ZM276.389 113.911H277.327V112.859H276.389V113.911Z" fill="#1C344F"/>
<path d="M272.297 117.26H270.406V115.247H272.297V117.26ZM270.885 116.779H271.819V115.728H270.885V116.779Z" fill="#1C344F"/>
<path d="M275.053 117.26H273.158V115.247H275.053V117.26ZM273.637 116.779H274.574V115.728H273.637V116.779Z" fill="#1C344F"/>
<path d="M277.805 117.26H275.911V115.247H277.805V117.26ZM276.389 116.779H277.327V115.728H276.389V116.779Z" fill="#1C344F"/>
<path d="M272.297 120.128H270.406V118.115H272.297V120.128ZM270.885 119.647H271.819V118.596H270.885V119.647Z" fill="#1C344F"/>
<path d="M275.053 120.128H273.158V118.115H275.053V120.128ZM273.637 119.647H274.574V118.596H273.637V119.647Z" fill="#1C344F"/>
<path d="M277.805 120.128H275.911V118.115H277.805V120.128ZM276.389 119.647H277.327V118.596H276.389V119.647Z" fill="#1C344F"/>
<path d="M272.297 122.993H270.406V120.984H272.297V122.993ZM270.885 122.512H271.819V121.464H270.885V122.512Z" fill="#1C344F"/>
<path d="M275.053 122.993H273.158V120.984H275.053V122.993ZM273.637 122.512H274.574V121.464H273.637V122.512Z" fill="#1C344F"/>
<path d="M277.805 122.993H275.911V120.984H277.805V122.993ZM276.389 122.512H277.327V121.464H276.389V122.512Z" fill="#1C344F"/>
<path d="M272.297 125.862H270.406V123.852H272.297V125.862ZM270.885 125.381H271.819V124.349H270.885V125.381Z" fill="#1C344F"/>
<path d="M275.053 125.862H273.158V123.852H275.053V125.862ZM273.637 125.381H274.574V124.349H273.637V125.381Z" fill="#1C344F"/>
<path d="M277.805 125.862H275.911V123.852H277.805V125.862ZM276.389 125.381H277.327V124.349H276.389V125.381Z" fill="#1C344F"/>
<path d="M272.297 128.73H270.406V126.717H272.297V128.73ZM270.885 128.249H271.819V127.198H270.885V128.249Z" fill="#1C344F"/>
<path d="M275.053 128.73H273.158V126.717H275.053V128.73ZM273.637 128.249H274.574V127.198H273.637V128.249Z" fill="#1C344F"/>
<path d="M277.805 128.73H275.911V126.717H277.805V128.73ZM276.389 128.249H277.327V127.198H276.389V128.249Z" fill="#1C344F"/>
<path d="M272.297 131.598H270.406V129.586H272.297V131.598ZM270.885 131.118H271.819V130.066H270.885V131.118Z" fill="#1C344F"/>
<path d="M275.053 131.598H273.158V129.586H275.053V131.598ZM273.637 131.118H274.574V130.066H273.637V131.118Z" fill="#1C344F"/>
<path d="M277.805 131.598H275.911V129.586H277.805V131.598ZM276.389 131.118H277.327V130.066H276.389V131.118Z" fill="#1C344F"/>
<path d="M272.297 134.467H270.406V132.454H272.297V134.467ZM270.885 133.986H271.819V132.935H270.885V133.986Z" fill="#1C344F"/>
<path d="M275.053 134.467H273.158V132.454H275.053V134.467ZM273.637 133.986H274.574V132.935H273.637V133.986Z" fill="#1C344F"/>
<path d="M277.805 134.467H275.911V132.454H277.805V134.467ZM276.389 133.986H277.327V132.935H276.389V133.986Z" fill="#1C344F"/>
<path d="M270.847 100.546H270.368V106.697H270.847V100.546Z" fill="#1C344F"/>
<path d="M277.843 100.546H277.365V106.697H277.843V100.546Z" fill="#1C344F"/>
<path d="M278.589 100.306H269.619V100.787H278.589V100.306Z" fill="#1C344F"/>
<path d="M273.06 101.367H272.581V106.017H273.06V101.367Z" fill="#1C344F"/>
<path d="M273.206 101.126H272.441V101.607H273.206V101.126Z" fill="#1C344F"/>
<path d="M273.232 105.777H272.412V106.257H273.232V105.777Z" fill="#1C344F"/>
<path d="M275.627 101.367H275.148V106.017H275.627V101.367Z" fill="#1C344F"/>
<path d="M275.77 101.126H275.005V101.607H275.77V101.126Z" fill="#1C344F"/>
<path d="M275.799 105.777H274.979V106.257H275.799V105.777Z" fill="#1C344F"/>
<path d="M279.281 99.0401L279.189 96.7166H268.987L268.927 99.0369L268.448 99.0241L268.522 96.2358H279.648L279.76 99.0209L279.281 99.0401Z" fill="#1C344F"/>
<path d="M268.971 96.5787L268.538 96.3768L269.788 93.6847H278.385L279.635 96.3768L279.202 96.5787L278.082 94.1654H270.091L268.971 96.5787Z" fill="#1C344F"/>
<path d="M270.432 80.4839H269.954V93.9283H270.432V80.4839Z" fill="#1C344F"/>
<path d="M278.22 80.4839H277.741V93.9283H278.22V80.4839Z" fill="#1C344F"/>
<path d="M278.739 83.2561H269.431V83.7368H278.739V83.2561Z" fill="#1C344F"/>
<path d="M278.452 80.7114H269.622V78.3046H278.452V80.7114ZM270.11 80.2307H277.983V78.7853H270.11V80.2307Z" fill="#1C344F"/>
<path d="M276.201 83.7016H275.104V81.7466H276.201V83.7016ZM275.582 83.2208H275.723V82.2273H275.582V83.2208ZM274.68 83.7016H273.58V81.7466H274.68V83.7016ZM274.042 83.2208H274.185V82.2273H274.042V83.2208ZM273.053 83.7016H271.956V81.7466H273.053V83.7016ZM272.435 83.2208H272.575V82.2273H272.435V83.2208Z" fill="#1C344F"/>
<path d="M277.126 92.2553H276.647V85.3905H277.126V92.2553ZM271.539 92.2553H271.067V85.3905H271.545L271.539 92.2553Z" fill="#1C344F"/>
<path d="M274.086 89.4895C273.637 89.4895 273.198 89.3557 272.825 89.105C272.452 88.8542 272.161 88.4979 271.989 88.0809C271.817 87.6639 271.772 87.2051 271.86 86.7625C271.947 86.3198 272.163 85.9133 272.481 85.5941C272.799 85.275 273.203 85.0577 273.644 84.9696C274.084 84.8816 274.54 84.9268 274.955 85.0995C275.37 85.2722 275.725 85.5647 275.974 85.9399C276.224 86.3152 276.357 86.7563 276.357 87.2077C276.356 87.8126 276.117 88.3925 275.691 88.8203C275.265 89.248 274.688 89.4887 274.086 89.4895ZM274.086 85.4065C273.732 85.4065 273.386 85.5122 273.091 85.7101C272.796 85.908 272.566 86.1893 272.431 86.5184C272.295 86.8475 272.26 87.2097 272.329 87.5591C272.398 87.9084 272.569 88.2294 272.819 88.4813C273.07 88.7332 273.389 88.9047 273.737 88.9742C274.084 89.0437 274.445 89.008 274.772 88.8717C275.1 88.7354 275.38 88.5045 275.577 88.2083C275.774 87.9121 275.879 87.5639 275.879 87.2077C275.879 86.73 275.69 86.2718 275.354 85.9341C275.018 85.5963 274.562 85.4065 274.086 85.4065Z" fill="#1C344F"/>
<path d="M272.69 90.5536H272.211V91.0632H272.69V90.5536Z" fill="#1C344F"/>
<path d="M273.506 91.5182H273.028V92.2553H273.506V91.5182Z" fill="#1C344F"/>
<path d="M273.506 90.5536H273.028V91.0632H273.506V90.5536Z" fill="#1C344F"/>
<path d="M274.326 91.5182H273.847V92.2553H274.326V91.5182Z" fill="#1C344F"/>
<path d="M274.326 90.5536H273.847V91.0632H274.326V90.5536Z" fill="#1C344F"/>
<path d="M275.145 91.5182H274.667V92.2553H275.145V91.5182Z" fill="#1C344F"/>
<path d="M275.145 90.5536H274.667V91.0632H275.145V90.5536Z" fill="#1C344F"/>
<path d="M275.962 91.5182H275.483V92.2553H275.962V91.5182Z" fill="#1C344F"/>
<path d="M275.962 90.5536H275.483V91.0632H275.962V90.5536Z" fill="#1C344F"/>
<path d="M272.69 91.5182H272.211V92.2553H272.69V91.5182Z" fill="#1C344F"/>
<path d="M275.187 87.618H273.764V86.1021H274.243V87.1372H275.187V87.618Z" fill="#1C344F"/>
<path d="M270.901 78.6282L270.451 78.4583L274.039 68.8469L277.623 78.4583L277.174 78.6282L274.039 70.2186L270.901 78.6282Z" fill="#1C344F"/>
<path d="M274.278 66.3055H273.8V69.5328H274.278V66.3055Z" fill="#1C344F"/>
<path d="M272.556 99.2708H271.57V97.3158H272.556V99.2708ZM272.049 98.79H272.077V97.7965H272.049V98.79Z" fill="#1C344F"/>
<path d="M274.517 99.2708H273.528V97.3158H274.517V99.2708ZM274.007 98.79H274.039V97.7965H274.007V98.79Z" fill="#1C344F"/>
<path d="M276.434 99.2708H275.448V97.3158H276.434V99.2708ZM275.927 98.79H275.955V97.7965H275.927V98.79Z" fill="#1C344F"/>
<path d="M262.485 136.274H262.007V88.5665H235.334V136.274H234.855V88.0858H262.485V136.274Z" fill="#1C344F"/>
<path d="M261.563 88.3262H261.085V86.743H260.042V84.6438H237.298V86.743H236.252V88.3262H235.774V86.2623H236.82V84.1631H260.52V86.2623H261.563V88.3262Z" fill="#1C344F"/>
<path d="M258.693 84.4035H258.215V81.7562H239.122V84.4035H238.644V81.2755H258.693V84.4035Z" fill="#1C344F"/>
<path d="M256.541 81.5158H256.062V79.8236H241.275V81.5158H240.796V79.3429H256.541V81.5158Z" fill="#1C344F"/>
<path d="M255.944 79.6442C255.516 78.0344 254.571 76.6117 253.255 75.597C251.94 74.5823 250.328 74.0324 248.67 74.0325H248.571C246.932 74.0568 245.346 74.618 244.053 75.6309C242.761 76.6437 241.832 78.0528 241.409 79.6442L240.946 79.5224C241.399 77.8075 242.403 76.291 243.802 75.2089C245.202 74.1267 246.917 73.5397 248.683 73.5389H249.26L249.241 73.5582C250.903 73.6808 252.485 74.3213 253.768 75.3903C255.051 76.4594 255.97 77.9038 256.397 79.5224L255.944 79.6442Z" fill="#1C344F"/>
<path d="M248.909 71.4172H248.431V81.5671H248.909V71.4172Z" fill="#1C344F"/>
<path d="M247.784 72.4236H247.305V73.8658H247.784V72.4236Z" fill="#1C344F"/>
<path d="M250.035 72.4236H249.557V73.8658H250.035V72.4236Z" fill="#1C344F"/>
<path d="M252.637 79.6025C252.637 79.5608 252.28 75.4073 248.67 74.1542C245.06 75.3977 244.703 79.5512 244.7 79.6025L244.225 79.564C244.225 79.5192 244.607 74.9939 248.597 73.6799L248.67 73.6575L248.743 73.6799C252.733 74.9939 253.112 79.5192 253.116 79.564L252.637 79.6025Z" fill="#1C344F"/>
<path d="M240.171 88.3262H239.693V136.354H240.171V88.3262Z" fill="#1C344F"/>
<path d="M248.909 88.3262H248.431V136.354H248.909V88.3262Z" fill="#1C344F"/>
<path d="M257.647 88.3262H257.169V136.354H257.647V88.3262Z" fill="#1C344F"/>
<path d="M23.5255 115.536H23.0471V136.354H23.5255V115.536Z" fill="#1C344F"/>
<path d="M98.6363 115.536H98.158V136.354H98.6363V115.536Z" fill="#1C344F"/>
<path d="M100.055 115.295H21.6311V115.776H100.055V115.295Z" fill="#1C344F"/>
<path d="M22.6772 115.699L22.3264 115.369L30.2416 106.898H56.4967V107.379H30.4488L22.6772 115.699Z" fill="#1C344F"/>
<path d="M99.0126 115.699L91.241 107.379H65.1931V106.898H91.4483L91.5185 106.972L99.3603 115.369L99.0126 115.699Z" fill="#1C344F"/>
<path d="M57.1854 125.705H22.6133V126.185H57.1854V125.705Z" fill="#1C344F"/>
<path d="M98.4576 125.705H64.5488V126.185H98.4576V125.705Z" fill="#1C344F"/>
<path d="M56.7359 100.492H56.2576V102.674H56.7359V100.492Z" fill="#1C344F"/>
<path d="M65.4322 100.492H64.9539V102.639H65.4322V100.492Z" fill="#1C344F"/>
<path d="M31.0514 123.141H28.363V118.333H31.0514V123.141ZM28.8414 122.66H30.573V118.814H28.8414V122.66Z" fill="#1C344F"/>
<path d="M37.2765 123.141H34.5881V118.333H37.2765V123.141ZM35.0665 122.66H36.7981V118.814H35.0792L35.0665 122.66Z" fill="#1C344F"/>
<path d="M43.5045 123.141H40.8193V118.333H43.5077L43.5045 123.141ZM41.2945 122.66H43.0261V118.814H41.2945V122.66Z" fill="#1C344F"/>
<path d="M49.7486 123.141H47.0603V118.333H49.7486V123.141ZM47.5387 122.66H49.2703V118.814H47.5163L47.5387 122.66Z" fill="#1C344F"/>
<path d="M55.9576 123.141H53.2725V118.333H55.9576V123.141ZM53.7508 122.66H55.4888V118.814H53.7604L53.7508 122.66Z" fill="#1C344F"/>
<path d="M62.1859 123.141H59.4976V118.333H62.1859V123.141ZM59.9759 122.66H61.7075V118.814H59.9759V122.66Z" fill="#1C344F"/>
<path d="M68.4139 123.141H65.7256V118.333H68.4139V123.141ZM66.2039 122.66H67.926V118.814H66.2039V122.66Z" fill="#1C344F"/>
<path d="M74.639 123.141H71.9539V118.333H74.639V123.141ZM72.4322 122.66H74.1607V118.814H72.4322V122.66Z" fill="#1C344F"/>
<path d="M80.8671 123.141H78.1787V118.333H80.8671V123.141ZM78.6571 122.66H80.3887V118.814H78.6571V122.66Z" fill="#1C344F"/>
<path d="M87.0953 123.141H84.407V118.333H87.0953V123.141ZM84.8853 122.66H86.617V118.814H84.8853V122.66Z" fill="#1C344F"/>
<path d="M93.3202 123.141H90.635V118.333H93.3202V123.141ZM91.1134 122.66H92.8418V118.814H91.1134V122.66Z" fill="#1C344F"/>
<path d="M31.0514 133.553H28.363V128.746H31.0514V133.553ZM28.8414 133.073H30.573V129.227H28.8414V133.073Z" fill="#1C344F"/>
<path d="M37.2765 133.553H34.5881V128.746H37.2765V133.553ZM35.0665 133.073H36.7981V129.227H35.0792L35.0665 133.073Z" fill="#1C344F"/>
<path d="M43.5045 133.553H40.8193V128.746H43.5077L43.5045 133.553ZM41.2945 133.073H43.0261V129.227H41.2945V133.073Z" fill="#1C344F"/>
<path d="M49.7486 133.553H47.0603V128.746H49.7486V133.553ZM47.5387 133.073H49.2703V129.227H47.5163L47.5387 133.073Z" fill="#1C344F"/>
<path d="M55.9576 133.553H53.2725V128.746H55.9576V133.553ZM53.7508 133.073H55.4888V129.227H53.7604L53.7508 133.073Z" fill="#1C344F"/>
<path d="M68.4139 133.553H65.7256V128.746H68.4139V133.553ZM66.2039 133.073H67.926V129.227H66.2039V133.073Z" fill="#1C344F"/>
<path d="M74.639 133.553H71.9539V128.746H74.639V133.553ZM72.4322 133.073H74.1607V129.227H72.4322V133.073Z" fill="#1C344F"/>
<path d="M80.8671 133.553H78.1787V128.746H80.8671V133.553ZM78.6571 133.073H80.3887V129.227H78.6571V133.073Z" fill="#1C344F"/>
<path d="M87.0953 133.553H84.407V128.746H87.0953V133.553ZM84.8853 133.073H86.617V129.227H84.8853V133.073Z" fill="#1C344F"/>
<path d="M93.3202 133.553H90.635V128.746H93.3202V133.553ZM91.1134 133.073H92.8418V129.227H91.1134V133.073Z" fill="#1C344F"/>
<path d="M66.5262 127.15H55.1318L60.8721 123.221L65.9745 126.721L66.5262 127.15ZM56.6817 126.669H65.0561L60.8529 123.801L56.6817 126.669Z" fill="#1C344F"/>
<path d="M65.4356 110.36H62.0329V109.879H64.9572V102.892H56.7391V109.879H59.7081V110.36H56.2607V102.411H65.4356V110.36Z" fill="#1C344F"/>
<path d="M65.193 101.136H56.4966V101.617H65.193V101.136Z" fill="#1C344F"/>
<path d="M64.3065 95.4089H63.8281V101.376H64.3065V95.4089Z" fill="#1C344F"/>
<path d="M57.8617 95.4089H57.3833V101.376H57.8617V95.4089Z" fill="#1C344F"/>
<path d="M65.2251 95.6493H56.4617V93.6399H65.2251V95.6493ZM56.9336 95.1686H64.7372V94.1206H56.94L56.9336 95.1686Z" fill="#1C344F"/>
<path d="M62.7409 101.376H62.2625V98.1716C62.2716 97.9788 62.2417 97.7862 62.1745 97.6054C62.1074 97.4246 62.0045 97.2594 61.8719 97.1197C61.7394 96.9801 61.5801 96.8689 61.4036 96.7929C61.227 96.717 61.037 96.6778 60.845 96.6778C60.653 96.6778 60.4629 96.717 60.2864 96.7929C60.1099 96.8689 59.9505 96.9801 59.818 97.1197C59.6855 97.2594 59.5825 97.4246 59.5154 97.6054C59.4483 97.7862 59.4184 97.9788 59.4275 98.1716V101.376H58.9491V98.1716C58.9386 97.9148 58.9799 97.6585 59.0704 97.4182C59.161 97.1778 59.299 96.9584 59.476 96.773C59.6531 96.5875 59.8657 96.44 60.1009 96.3392C60.3362 96.2385 60.5892 96.1865 60.845 96.1865C61.1007 96.1865 61.3538 96.2385 61.589 96.3392C61.8243 96.44 62.0368 96.5875 62.2139 96.773C62.391 96.9584 62.5289 97.1778 62.6195 97.4182C62.7101 97.6585 62.7513 97.9148 62.7409 98.1716V101.376Z" fill="#1C344F"/>
<path d="M63.4329 89.4735H58.2539V89.9542H63.4329V89.4735Z" fill="#1C344F"/>
<path d="M61.9117 93.8802H61.4333V91.8675C61.4393 91.7862 61.4285 91.7045 61.4016 91.6276C61.3747 91.5507 61.3324 91.4801 61.2772 91.4204C61.2219 91.3607 61.1551 91.313 61.0807 91.2804C61.0063 91.2479 60.9261 91.231 60.8449 91.231C60.7638 91.231 60.6836 91.2479 60.6092 91.2804C60.5348 91.313 60.4679 91.3607 60.4127 91.4204C60.3575 91.4801 60.3151 91.5507 60.2883 91.6276C60.2614 91.7045 60.2506 91.7862 60.2566 91.8675V93.8802H59.7782V91.8675C59.7703 91.7218 59.792 91.576 59.842 91.439C59.892 91.302 59.9693 91.1767 60.0692 91.0707C60.169 90.9647 60.2893 90.8803 60.4227 90.8227C60.556 90.765 60.6997 90.7352 60.8449 90.7352C60.9901 90.7352 61.1338 90.765 61.2672 90.8227C61.4006 90.8803 61.5209 90.9647 61.6207 91.0707C61.7205 91.1767 61.7978 91.302 61.8479 91.439C61.8979 91.576 61.9196 91.7218 61.9117 91.8675V93.8802Z" fill="#1C344F"/>
<path d="M61.4652 86.5603H60.2214V87.041H61.4652V86.5603Z" fill="#1C344F"/>
<path d="M61.0825 101.703H60.5914V98.8446C60.5901 98.7285 60.5603 98.6145 60.5047 98.5127C60.4491 98.411 60.3693 98.3246 60.2725 98.2613L60.5435 97.8639C60.7064 97.9702 60.8406 98.1154 60.9341 98.2865C61.0276 98.4577 61.0775 98.6494 61.0793 98.8446L61.0825 101.703Z" fill="#1C344F"/>
<path d="M61.0824 102.652H60.5913V98.8446C60.594 98.6496 60.6442 98.4581 60.7376 98.2872C60.831 98.1162 60.9647 97.9708 61.1271 97.8639L61.3981 98.2613C61.3017 98.325 61.2222 98.4115 61.1666 98.5132C61.1111 98.6148 61.081 98.7286 61.0792 98.8446L61.0824 102.652Z" fill="#1C344F"/>
<path d="M58.3272 127.47H57.8489V136.354H58.3272V127.47Z" fill="#1C344F"/>
<path d="M57.2142 127.506H56.7358V136.354H57.2142V127.506Z" fill="#1C344F"/>
<path d="M58.5631 127.23H56.4934V127.711H58.5631V127.23Z" fill="#1C344F"/>
<path d="M64.9827 127.47H64.5044V136.354H64.9827V127.47Z" fill="#1C344F"/>
<path d="M63.8697 127.506H63.3914V136.354H63.8697V127.506Z" fill="#1C344F"/>
<path d="M65.2218 127.23H63.1521V127.711H65.2218V127.23Z" fill="#1C344F"/>
<path d="M62.6324 136.354H62.1541V129.605C62.1541 129.265 62.0197 128.939 61.7805 128.698C61.5412 128.458 61.2168 128.323 60.8785 128.323C60.5402 128.323 60.2157 128.458 59.9765 128.698C59.7373 128.939 59.6029 129.265 59.6029 129.605V136.354H59.1245V129.605C59.1515 129.156 59.348 128.734 59.674 128.425C59.9999 128.117 60.4308 127.945 60.8785 127.945C61.3262 127.945 61.757 128.117 62.083 128.425C62.4089 128.734 62.6055 129.156 62.6324 129.605V136.354Z" fill="#1C344F"/>
<path d="M62.3932 129.868H59.3413V130.348H62.3932V129.868Z" fill="#1C344F"/>
<path d="M65.7895 102.399H55.9067V102.88H65.7895V102.399Z" fill="#1C344F"/>
<path d="M61.0824 86.1021H60.604V87.7686H61.0824V86.1021Z" fill="#1C344F"/>
<path d="M59.1468 93.8802H58.678V89.7138C58.6995 89.1482 58.9383 88.613 59.3441 88.2204C59.7499 87.8279 60.2912 87.6086 60.8545 87.6086C61.4177 87.6086 61.9591 87.8279 62.3649 88.2204C62.7707 88.613 63.0094 89.1482 63.031 89.7138V93.8802H62.5526V89.7138C62.5337 89.274 62.3465 88.8585 62.0301 88.554C61.7137 88.2496 61.2925 88.0796 60.8545 88.0796C60.4164 88.0796 59.9953 88.2496 59.6789 88.554C59.3625 88.8585 59.1753 89.274 59.1563 89.7138L59.1468 93.8802Z" fill="#1C344F"/>
<path d="M41.1 110.645H37.1711L39.1356 108.584L41.1 110.645ZM38.2937 110.164H39.9775L39.1356 109.286L38.2937 110.164Z" fill="#1C344F"/>
<path d="M40.3061 112.276H39.8277V110.645H38.4437V112.276H37.9653V110.164H40.3061V112.276Z" fill="#1C344F"/>
<path d="M51.9809 110.645H48.052L50.0164 108.584L51.9809 110.645ZM49.1745 110.164H50.8615L50.0164 109.286L49.1745 110.164Z" fill="#1C344F"/>
<path d="M51.1869 112.276H50.7086V110.645H49.3245V112.276H48.8462V110.164H51.1869V112.276Z" fill="#1C344F"/>
<path d="M62.862 110.645H58.9363L60.8975 108.584L62.862 110.645ZM60.0556 110.164H61.7426L60.9103 109.286L60.0556 110.164Z" fill="#1C344F"/>
<path d="M62.071 112.276H61.5926V110.645H60.2054V112.276H59.7271V110.164H62.071V112.276Z" fill="#1C344F"/>
<path d="M73.746 110.645H69.8171L71.7816 108.584L73.746 110.645ZM70.9365 110.164H72.6235L71.7816 109.286L70.9365 110.164Z" fill="#1C344F"/>
<path d="M72.9521 112.276H72.4737V110.645H71.0865V112.276H70.6082V110.164H72.9521V112.276Z" fill="#1C344F"/>
<path d="M84.6269 110.645H80.698L82.6624 108.584L84.6269 110.645ZM81.8205 110.164H83.5043L82.6624 109.286L81.8205 110.164Z" fill="#1C344F"/>
<path d="M83.8329 112.276H83.3546V110.645H81.9705V112.276H81.4922V110.164H83.8329V112.276Z" fill="#1C344F"/>
</svg>
